<?xml version="1.0" encoding="UTF-8" standalone="no"?>
<!-- Created with Inkscape (http://www.inkscape.org/) -->

<svg
   xmlns:dc="http://purl.org/dc/elements/1.1/"
   xmlns:cc="http://creativecommons.org/ns#"
   xmlns:rdf="http://www.w3.org/1999/02/22-rdf-syntax-ns#"
   xmlns:svg="http://www.w3.org/2000/svg"
   xmlns="http://www.w3.org/2000/svg"
   xmlns:sodipodi="http://sodipodi.sourceforge.net/DTD/sodipodi-0.dtd"
   xmlns:inkscape="http://www.inkscape.org/namespaces/inkscape"
   version="1.1"
   id="svg3515"
   xml:space="preserve"
   width="816"
   height="1056"
   viewBox="0 0 816 1056"
   sodipodi:docname="stripes-perspective.svg"
   inkscape:version="0.92.4 (5da689c313, 2019-01-14)"><metadata
     id="metadata3521"><rdf:RDF><cc:Work
         rdf:about=""><dc:format>image/svg+xml</dc:format><dc:type
           rdf:resource="http://purl.org/dc/dcmitype/StillImage" /><dc:title></dc:title></cc:Work></rdf:RDF></metadata><defs
     id="defs3519"><clipPath
       clipPathUnits="userSpaceOnUse"
       id="clipPath3531"><path
         d="M 0,792 H 612 V 0 H 0 Z"
         id="path3529"
         inkscape:connector-curvature="0" /></clipPath></defs><sodipodi:namedview
     pagecolor="#ffffff"
     bordercolor="#666666"
     borderopacity="1"
     objecttolerance="10"
     gridtolerance="10"
     guidetolerance="10"
     inkscape:pageopacity="0"
     inkscape:pageshadow="2"
     inkscape:window-width="1920"
     inkscape:window-height="1018"
     id="namedview3517"
     showgrid="false"
     inkscape:zoom="0.60234488"
     inkscape:cx="559.32203"
     inkscape:cy="467.59322"
     inkscape:window-x="-8"
     inkscape:window-y="-8"
     inkscape:window-maximized="1"
     inkscape:current-layer="g3523" /><g
     id="g3523"
     inkscape:groupmode="layer"
     inkscape:label="vector-background-56-publicdomainvectors [Converted]"
     transform="matrix(1.3333333,0,0,-1.3333333,0,1056)"><g
       id="g3525"><g
         id="g3527"
         clip-path="url(#clipPath3531)"><path
           d="m 611.845,-0.318 h -59.027 c -11.677,22.054 -22.244,42.018 -31.861,60.181 -15.418,29.106 -28.743,54.297 -40.387,76.273 -19.357,36.54 -34.786,65.697 -47.387,89.496 -10.482,19.8 -19.344,36.503 -26.918,50.833 -12.304,23.206 -21.851,41.248 -29.474,55.664 -6.195,11.689 -11.353,21.445 -15.722,29.693 h -0.029 v 0.057 l -0.06,0.111 h 0.06 v 429.692 h 29.188 V 361.891 h 0.011 c 6.839,-8.289 14.916,-18.101 24.626,-29.876 11.879,-14.418 26.748,-32.452 45.889,-55.675 11.798,-14.324 25.58,-31.027 41.893,-50.823 19.61,-23.779 43.619,-52.913 73.716,-89.43 10.845,-13.138 22.627,-27.43 35.482,-43.028 z"
           style="fill:#d22d28;fill-opacity:1;fill-rule:nonzero;stroke:none"
           id="path3533"
           inkscape:connector-curvature="0" /><path
           d="m 611.845,-0.318 h -59.027 c -11.677,22.054 -22.244,42.018 -31.861,60.181 -15.418,29.106 -28.743,54.297 -40.387,76.273 -19.357,36.54 -34.786,65.697 -47.387,89.496 -10.482,19.8 -19.344,36.503 -26.918,50.833 -12.304,23.206 -21.851,41.248 -29.474,55.664 -6.195,11.689 -11.353,21.445 -15.722,29.693 h -0.029 v 0.057 l -0.06,0.111 h 0.06 v 429.692 h 29.188 V 361.891 h 0.011 c 6.839,-8.289 14.916,-18.101 24.626,-29.876 11.879,-14.418 26.748,-32.452 45.889,-55.675 11.798,-14.324 25.58,-31.027 41.893,-50.823 19.61,-23.779 43.619,-52.913 73.716,-89.43 10.845,-13.138 22.627,-27.43 35.482,-43.028 z"
           style="fill:#d22d28;fill-opacity:1;fill-rule:nonzero;stroke:none"
           id="path3535"
           inkscape:connector-curvature="0" /><path
           d="M 356.703,791.682 V 362.004 h 0.041 c 4.031,-8.282 8.807,-18.082 14.535,-29.858 7.01,-14.412 15.783,-32.454 27.094,-55.664 6.97,-14.312 15.11,-31.026 24.745,-50.835 11.589,-23.793 25.782,-52.949 43.57,-89.504 10.707,-21.977 22.951,-47.175 37.134,-76.287 8.837,-18.166 18.554,-38.126 29.289,-60.174 h -136.4 c -4.21,22.03 -8.021,41.97 -11.488,60.119 -5.574,29.161 -10.389,54.377 -14.596,76.39 -6.988,36.583 -12.565,65.764 -17.116,89.572 -3.785,19.802 -6.978,36.533 -9.715,50.845 -4.436,23.229 -7.884,41.247 -10.634,55.651 -2.209,11.561 -4.052,21.207 -5.617,29.395 -0.019,0.099 -0.037,0.197 -0.057,0.296 -0.009,0.049 0,0.154 0,0.154 v 429.578 z"
           style="fill:#3f1938;fill-opacity:1;fill-rule:nonzero;stroke:none"
           id="path3537"
           inkscape:connector-curvature="0" /><path
           d="M 323.157,791.682 V 362.117 c 0,0 2.743,-18.075 4.486,-29.841 2.133,-14.402 4.809,-32.422 8.249,-55.65 2.125,-14.312 4.601,-31.041 7.537,-50.847 3.528,-23.812 7.853,-52.993 13.277,-89.58 3.261,-22.018 6.999,-47.238 11.323,-76.405 2.691,-18.146 5.647,-38.085 8.911,-60.112 H 240.104 c 3.267,22.006 6.224,41.927 8.914,60.055 4.34,29.214 8.085,54.467 11.357,76.51 5.433,36.622 9.765,65.823 13.305,89.648 2.938,19.812 5.419,36.544 7.548,50.858 3.448,23.221 6.119,41.244 8.256,55.64 1.747,11.757 3.202,21.546 4.427,29.826 h 0.006 v 429.463 z"
           style="fill:#ea3e29;fill-opacity:1;fill-rule:nonzero;stroke:none"
           id="path3539"
           inkscape:connector-curvature="0" /><path
           d="m 289.667,791.682 c 0.001,-143.218 0.001,-286.436 0.001,-429.653 0,0 -3.479,-17.95 -5.707,-29.62 -2.758,-14.394 -6.207,-32.418 -10.65,-55.638 -2.744,-14.314 -5.944,-31.047 -9.736,-50.86 -4.563,-23.822 -10.153,-53.029 -17.161,-89.656 -4.222,-22.047 -9.057,-47.304 -14.649,-76.524 -3.472,-18.128 -7.284,-38.046 -11.494,-60.049 H 83.005 c 10.747,21.979 20.476,41.881 29.331,59.992 14.315,29.271 26.681,54.557 37.472,76.63 17.926,36.667 32.225,65.89 43.876,89.723 9.696,19.815 17.874,36.552 24.875,50.869 11.356,23.212 20.17,41.226 27.2,55.626 5.753,11.743 14.644,29.81 14.644,29.81 v 429.35 z"
           style="fill:#f2911e;fill-opacity:1;fill-rule:nonzero;stroke:none"
           id="path3541"
           inkscape:connector-curvature="0" /><path
           d="m 0.536,90.142 c 13.986,16.84 26.728,32.184 38.395,46.218 30.482,36.699 54.78,65.946 74.593,89.8 16.471,19.813 30.376,36.555 42.266,50.882 19.285,23.221 34.25,41.22 46.193,55.613 9.764,11.731 17.881,21.515 24.745,29.789 v 429.238 h 29.289 V 362.347 c 0,0 -9.581,-18.143 -15.79,-29.808 -7.656,-14.387 -17.248,-32.397 -29.598,-55.625 -7.623,-14.312 -16.522,-31.056 -27.069,-50.869 -12.68,-23.854 -28.243,-53.06 -47.751,-89.734 C 124.068,114.229 110.595,88.951 95.024,59.665 85.383,41.557 74.792,21.661 63.097,-0.318 H 0.536 Z"
           style="fill:#198e8f;fill-opacity:1;fill-rule:nonzero;stroke:none"
           id="path3543"
           inkscape:connector-curvature="0" /></g></g></g></svg>