<svg width="1440" height="900" viewBox="0 0 1440 900" fill="none" xmlns="http://www.w3.org/2000/svg">
<rect width="1440" height="900" fill="white"/>
<path d="M655.334 64L655.954 50.22L656.074 45.14L659.754 61.66H664.974L668.034 45.14L668.274 50.22L669.294 64H675.514L673.794 40.56H665.434L663.874 48.44L663.114 52.4L662.314 48.42L660.554 40.56H651.174L649.314 64H655.334ZM710.046 64V59L702.486 59.2V53.88L707.886 54.28V49.6H702.486V45.08L709.346 45.28L709.746 40.56H695.866V64H710.046ZM736.822 64V56.62L735.642 48.94L738.582 54.74L743.342 64H749.442V40.56H743.062V46.84L744.042 55.74L740.522 48.16L736.842 40.56H729.482L730.462 42.44V64H736.822ZM779.802 64.42C781.202 64.42 782.429 64.2867 783.482 64.02C784.549 63.7533 785.409 63.4 786.062 62.96C786.729 62.5067 787.262 61.9467 787.662 61.28C788.075 60.6 788.355 59.9 788.502 59.18C788.662 58.46 788.742 57.6533 788.742 56.76V40.56H782.422V55.8C782.422 56.6533 782.355 57.38 782.222 57.98C782.102 58.5667 781.922 59.02 781.682 59.34C781.442 59.6467 781.182 59.8667 780.902 60C780.622 60.12 780.295 60.18 779.922 60.18C779.242 60.18 778.722 59.8667 778.362 59.24C778.015 58.6 777.842 57.4333 777.842 55.74V40.56H770.722V56.64C770.722 57.5467 770.809 58.3733 770.982 59.12C771.155 59.8667 771.455 60.58 771.882 61.26C772.322 61.9267 772.875 62.4867 773.542 62.94C774.222 63.3933 775.089 63.7533 776.142 64.02C777.209 64.2867 778.429 64.42 779.802 64.42Z" fill="black"/>
<path opacity="0.5" d="M146.56 166.4C148.493 166.4 150.21 166.817 151.71 167.65C153.21 168.45 154.46 169.633 155.46 171.2C156.46 172.733 157.21 174.633 157.71 176.9C158.243 179.133 158.51 181.683 158.51 184.55C158.51 190.35 157.476 194.817 155.41 197.95C153.343 201.05 150.36 202.6 146.46 202.6C142.56 202.6 139.593 201.017 137.56 197.85C135.526 194.683 134.51 190.217 134.51 184.45C134.51 178.65 135.543 174.2 137.61 171.1C139.676 167.967 142.66 166.4 146.56 166.4ZM146.51 170.5C145.41 170.5 144.41 170.75 143.51 171.25C142.61 171.717 141.843 172.5 141.21 173.6C140.576 174.667 140.093 176.083 139.76 177.85C139.426 179.617 139.26 181.8 139.26 184.4C139.26 189.033 139.893 192.55 141.16 194.95C142.426 197.317 144.21 198.5 146.51 198.5C147.61 198.5 148.61 198.267 149.51 197.8C150.41 197.3 151.176 196.517 151.81 195.45C152.443 194.35 152.926 192.917 153.26 191.15C153.593 189.383 153.76 187.2 153.76 184.6C153.76 179.967 153.126 176.467 151.86 174.1C150.593 171.7 148.81 170.5 146.51 170.5ZM150.36 226V257H156.31V261H138.71V257H145.86V231.75L139.16 236.8L136.71 233.45L147.06 226H150.36Z" fill="black"/>
<path opacity="0.5" d="M146.56 324.4C148.493 324.4 150.21 324.817 151.71 325.65C153.21 326.45 154.46 327.633 155.46 329.2C156.46 330.733 157.21 332.633 157.71 334.9C158.243 337.133 158.51 339.683 158.51 342.55C158.51 348.35 157.476 352.817 155.41 355.95C153.343 359.05 150.36 360.6 146.46 360.6C142.56 360.6 139.593 359.017 137.56 355.85C135.526 352.683 134.51 348.217 134.51 342.45C134.51 336.65 135.543 332.2 137.61 329.1C139.676 325.967 142.66 324.4 146.56 324.4ZM146.51 328.5C145.41 328.5 144.41 328.75 143.51 329.25C142.61 329.717 141.843 330.5 141.21 331.6C140.576 332.667 140.093 334.083 139.76 335.85C139.426 337.617 139.26 339.8 139.26 342.4C139.26 347.033 139.893 350.55 141.16 352.95C142.426 355.317 144.21 356.5 146.51 356.5C147.61 356.5 148.61 356.267 149.51 355.8C150.41 355.3 151.176 354.517 151.81 353.45C152.443 352.35 152.926 350.917 153.26 349.15C153.593 347.383 153.76 345.2 153.76 342.6C153.76 337.967 153.126 334.467 151.86 332.1C150.593 329.7 148.81 328.5 146.51 328.5ZM135.91 419C135.81 418.4 135.76 417.783 135.76 417.15C135.76 415.017 136.143 413.083 136.91 411.35C137.71 409.617 138.693 408.05 139.86 406.65C141.026 405.217 142.276 403.9 143.61 402.7C144.976 401.467 146.243 400.3 147.41 399.2C148.576 398.067 149.543 396.95 150.31 395.85C151.11 394.717 151.51 393.517 151.51 392.25C151.51 390.85 150.993 389.7 149.96 388.8C148.926 387.867 147.593 387.4 145.96 387.4C144.56 387.4 143.276 387.683 142.11 388.25C140.976 388.783 139.91 389.517 138.91 390.45L136.41 387.4C137.743 386.2 139.21 385.233 140.81 384.5C142.443 383.767 144.326 383.4 146.46 383.4C147.926 383.4 149.26 383.617 150.46 384.05C151.693 384.483 152.726 385.1 153.56 385.9C154.426 386.667 155.093 387.567 155.56 388.6C156.026 389.633 156.26 390.75 156.26 391.95C156.26 393.55 155.893 395.033 155.16 396.4C154.46 397.733 153.56 399.017 152.46 400.25C151.393 401.45 150.21 402.617 148.91 403.75C147.643 404.85 146.443 405.983 145.31 407.15C144.176 408.317 143.176 409.533 142.31 410.8C141.476 412.067 140.976 413.433 140.81 414.9H156.21V419H135.91Z" fill="black"/>
<path opacity="0.5" d="M146.56 482.4C148.493 482.4 150.21 482.817 151.71 483.65C153.21 484.45 154.46 485.633 155.46 487.2C156.46 488.733 157.21 490.633 157.71 492.9C158.243 495.133 158.51 497.683 158.51 500.55C158.51 506.35 157.476 510.817 155.41 513.95C153.343 517.05 150.36 518.6 146.46 518.6C142.56 518.6 139.593 517.017 137.56 513.85C135.526 510.683 134.51 506.217 134.51 500.45C134.51 494.65 135.543 490.2 137.61 487.1C139.676 483.967 142.66 482.4 146.56 482.4ZM146.51 486.5C145.41 486.5 144.41 486.75 143.51 487.25C142.61 487.717 141.843 488.5 141.21 489.6C140.576 490.667 140.093 492.083 139.76 493.85C139.426 495.617 139.26 497.8 139.26 500.4C139.26 505.033 139.893 508.55 141.16 510.95C142.426 513.317 144.21 514.5 146.51 514.5C147.61 514.5 148.61 514.267 149.51 513.8C150.41 513.3 151.176 512.517 151.81 511.45C152.443 510.35 152.926 508.917 153.26 507.15C153.593 505.383 153.76 503.2 153.76 500.6C153.76 495.967 153.126 492.467 151.86 490.1C150.593 487.7 148.81 486.5 146.51 486.5ZM144.46 577.6C142.26 577.6 140.36 577.317 138.76 576.75C137.193 576.15 135.843 575.433 134.71 574.6L136.76 570.85C137.693 571.55 138.76 572.167 139.96 572.7C141.193 573.233 142.71 573.5 144.51 573.5C146.71 573.5 148.443 572.933 149.71 571.8C151.01 570.633 151.66 569.167 151.66 567.4C151.66 566.5 151.476 565.633 151.11 564.8C150.743 563.967 150.16 563.25 149.36 562.65C148.593 562.017 147.61 561.517 146.41 561.15C145.243 560.783 143.843 560.6 142.21 560.6H139.41V556.95H142.01C143.476 556.95 144.76 556.783 145.86 556.45C146.96 556.083 147.86 555.6 148.56 555C149.293 554.4 149.826 553.733 150.16 553C150.526 552.233 150.71 551.45 150.71 550.65C150.71 549.083 150.11 547.817 148.91 546.85C147.743 545.883 146.293 545.4 144.56 545.4C142.96 545.4 141.56 545.667 140.36 546.2C139.16 546.7 138.176 547.267 137.41 547.9L135.56 544.35C136.56 543.683 137.843 543.033 139.41 542.4C140.976 541.733 142.81 541.4 144.91 541.4C146.543 541.4 147.993 541.633 149.26 542.1C150.56 542.567 151.643 543.2 152.51 544C153.41 544.8 154.093 545.733 154.56 546.8C155.026 547.833 155.26 548.917 155.26 550.05C155.26 552.05 154.76 553.717 153.76 555.05C152.793 556.35 151.41 557.433 149.61 558.3C151.71 559.1 153.343 560.267 154.51 561.8C155.71 563.333 156.31 565.15 156.31 567.25C156.31 568.55 156.06 569.833 155.56 571.1C155.093 572.333 154.376 573.433 153.41 574.4C152.443 575.367 151.21 576.15 149.71 576.75C148.21 577.317 146.46 577.6 144.46 577.6Z" fill="black"/>
<path opacity="0.5" d="M146.56 629.4C148.493 629.4 150.21 629.817 151.71 630.65C153.21 631.45 154.46 632.633 155.46 634.2C156.46 635.733 157.21 637.633 157.71 639.9C158.243 642.133 158.51 644.683 158.51 647.55C158.51 653.35 157.476 657.817 155.41 660.95C153.343 664.05 150.36 665.6 146.46 665.6C142.56 665.6 139.593 664.017 137.56 660.85C135.526 657.683 134.51 653.217 134.51 647.45C134.51 641.65 135.543 637.2 137.61 634.1C139.676 630.967 142.66 629.4 146.56 629.4ZM146.51 633.5C145.41 633.5 144.41 633.75 143.51 634.25C142.61 634.717 141.843 635.5 141.21 636.6C140.576 637.667 140.093 639.083 139.76 640.85C139.426 642.617 139.26 644.8 139.26 647.4C139.26 652.033 139.893 655.55 141.16 657.95C142.426 660.317 144.21 661.5 146.51 661.5C147.61 661.5 148.61 661.267 149.51 660.8C150.41 660.3 151.176 659.517 151.81 658.45C152.443 657.35 152.926 655.917 153.26 654.15C153.593 652.383 153.76 650.2 153.76 647.6C153.76 642.967 153.126 639.467 151.86 637.1C150.593 634.7 148.81 633.5 146.51 633.5ZM154.16 716.55V724H149.66V716.55H134.71V712.95L145.16 688.65L149.06 690.3L139.61 712.45H149.66V702.5H154.16V712.45H158.31V716.55H154.16Z" fill="black"/>
<line x1="124" y1="283.5" x2="1213" y2="283.5" stroke="black" stroke-opacity="0.6"/>
<line x1="124" y1="444.5" x2="1213" y2="444.5" stroke="black" stroke-opacity="0.6"/>
<path d="M124 592H1213" stroke="black" stroke-opacity="0.6"/>
<line x1="129" y1="742" x2="1208" y2="742" stroke="black" stroke-width="10" stroke-linecap="round"/>
<path opacity="0.5" d="M379.707 213.707C380.098 213.317 380.098 212.683 379.707 212.293L373.343 205.929C372.953 205.538 372.319 205.538 371.929 205.929C371.538 206.319 371.538 206.953 371.929 207.343L377.586 213L371.929 218.657C371.538 219.047 371.538 219.681 371.929 220.071C372.319 220.462 372.953 220.462 373.343 220.071L379.707 213.707ZM205 214H379V212H205V214Z" fill="black"/>
<path opacity="0.5" d="M379.707 371.707C380.098 371.317 380.098 370.683 379.707 370.293L373.343 363.929C372.953 363.538 372.319 363.538 371.929 363.929C371.538 364.319 371.538 364.953 371.929 365.343L377.586 371L371.929 376.657C371.538 377.047 371.538 377.681 371.929 378.071C372.319 378.462 372.953 378.462 373.343 378.071L379.707 371.707ZM205 372H379V370H205V372Z" fill="black"/>
<path opacity="0.5" d="M379.707 536.707C380.098 536.317 380.098 535.683 379.707 535.293L373.343 528.929C372.953 528.538 372.319 528.538 371.929 528.929C371.538 529.319 371.538 529.953 371.929 530.343L377.586 536L371.929 541.657C371.538 542.047 371.538 542.681 371.929 543.071C372.319 543.462 372.953 543.462 373.343 543.071L379.707 536.707ZM205 537H379V535H205V537Z" fill="black"/>
<path opacity="0.5" d="M379.707 677.707C380.098 677.317 380.098 676.683 379.707 676.293L373.343 669.929C372.953 669.538 372.319 669.538 371.929 669.929C371.538 670.319 371.538 670.953 371.929 671.343L377.586 677L371.929 682.657C371.538 683.047 371.538 683.681 371.929 684.071C372.319 684.462 372.953 684.462 373.343 684.071L379.707 677.707ZM205 678H379V676H205V678Z" fill="black"/>
<path d="M508.538 240H493.011V207.703H462.732V240H447.205V164.641H462.732V195.178H493.011V164.641H508.538V240ZM518.838 211.481C518.838 205.926 519.908 200.975 522.047 196.627C524.186 192.279 527.257 188.915 531.26 186.534C535.297 184.153 539.972 182.963 545.286 182.963C552.843 182.963 559.002 185.275 563.764 189.898C568.56 194.522 571.234 200.802 571.786 208.738L571.89 212.568C571.89 221.16 569.492 228.061 564.695 233.271C559.899 238.447 553.464 241.035 545.39 241.035C537.315 241.035 530.863 238.447 526.032 233.271C521.236 228.096 518.838 221.057 518.838 212.154V211.481ZM533.796 212.568C533.796 217.882 534.797 221.954 536.798 224.783C538.799 227.578 541.663 228.976 545.39 228.976C549.013 228.976 551.842 227.595 553.878 224.835C555.914 222.04 556.932 217.589 556.932 211.481C556.932 206.271 555.914 202.234 553.878 199.37C551.842 196.506 548.978 195.074 545.286 195.074C541.629 195.074 538.799 196.506 536.798 199.37C534.797 202.2 533.796 206.599 533.796 212.568ZM595.129 183.998L595.595 190.261C599.563 185.396 604.928 182.963 611.691 182.963C618.903 182.963 623.854 185.81 626.546 191.503C630.479 185.81 636.087 182.963 643.367 182.963C649.44 182.963 653.96 184.74 656.928 188.294C659.895 191.813 661.379 197.127 661.379 204.235V240H646.369V204.287C646.369 201.113 645.748 198.801 644.506 197.352C643.264 195.868 641.073 195.126 637.933 195.126C633.447 195.126 630.341 197.265 628.616 201.544L628.668 240H613.71V204.339C613.71 201.095 613.072 198.749 611.795 197.3C610.518 195.851 608.344 195.126 605.273 195.126C601.029 195.126 597.958 196.886 596.061 200.405V240H581.103V183.998H595.129ZM698.696 241.035C690.484 241.035 683.79 238.516 678.614 233.479C673.473 228.441 670.902 221.729 670.902 213.345V211.896C670.902 206.271 671.989 201.251 674.163 196.834C676.337 192.383 679.408 188.967 683.376 186.586C687.379 184.171 691.933 182.963 697.04 182.963C704.7 182.963 710.721 185.378 715.104 190.209C719.52 195.04 721.729 201.889 721.729 210.757V216.864H686.067C686.55 220.522 688 223.455 690.415 225.663C692.865 227.871 695.953 228.976 699.68 228.976C705.442 228.976 709.945 226.888 713.188 222.713L720.538 230.942C718.295 234.117 715.259 236.601 711.429 238.396C707.599 240.155 703.354 241.035 698.696 241.035ZM696.988 195.074C694.021 195.074 691.605 196.075 689.742 198.076C687.913 200.077 686.74 202.941 686.223 206.668H707.029V205.478C706.96 202.165 706.063 199.612 704.338 197.817C702.613 195.989 700.163 195.074 696.988 195.074Z" fill="black"/>
<path d="M507.741 383.897C507.155 392.006 504.153 398.39 498.735 403.048C493.353 407.706 486.244 410.035 477.411 410.035C467.75 410.035 460.141 406.792 454.586 400.305C449.065 393.783 446.305 384.846 446.305 373.494V368.888C446.305 361.642 447.581 355.258 450.135 349.737C452.688 344.216 456.328 339.99 461.056 337.057C465.817 334.089 471.338 332.605 477.618 332.605C486.313 332.605 493.318 334.935 498.632 339.593C503.946 344.251 507.017 350.79 507.845 359.209H492.317C491.938 354.344 490.575 350.824 488.229 348.65C485.917 346.442 482.38 345.338 477.618 345.338C472.442 345.338 468.561 347.201 465.973 350.928C463.419 354.62 462.108 360.365 462.039 368.163V373.856C462.039 382 463.264 387.952 465.714 391.713C468.198 395.474 472.097 397.354 477.411 397.354C482.207 397.354 485.779 396.268 488.125 394.094C490.506 391.885 491.869 388.487 492.214 383.897H507.741ZM514.625 380.481C514.625 374.926 515.695 369.975 517.834 365.627C519.973 361.279 523.044 357.915 527.047 355.534C531.084 353.153 535.759 351.963 541.073 351.963C548.63 351.963 554.789 354.275 559.551 358.898C564.347 363.522 567.021 369.802 567.573 377.738L567.677 381.568C567.677 390.16 565.279 397.061 560.482 402.271C555.686 407.447 549.251 410.035 541.177 410.035C533.103 410.035 526.65 407.447 521.819 402.271C517.023 397.096 514.625 390.057 514.625 381.154V380.481ZM529.583 381.568C529.583 386.882 530.584 390.954 532.585 393.783C534.586 396.578 537.45 397.976 541.177 397.976C544.8 397.976 547.629 396.595 549.665 393.835C551.701 391.04 552.719 386.589 552.719 380.481C552.719 375.271 551.701 371.234 549.665 368.37C547.629 365.506 544.765 364.074 541.073 364.074C537.416 364.074 534.586 365.506 532.585 368.37C530.584 371.2 529.583 375.599 529.583 381.568ZM590.916 352.998L591.382 359.261C595.35 354.396 600.715 351.963 607.479 351.963C614.69 351.963 619.642 354.81 622.333 360.503C626.267 354.81 631.874 351.963 639.154 351.963C645.227 351.963 649.747 353.74 652.715 357.294C655.682 360.813 657.166 366.127 657.166 373.235V409H642.156V373.287C642.156 370.113 641.535 367.801 640.293 366.352C639.051 364.868 636.86 364.126 633.72 364.126C629.234 364.126 626.129 366.265 624.403 370.544L624.455 409H609.497V373.339C609.497 370.095 608.859 367.749 607.582 366.3C606.305 364.851 604.132 364.126 601.061 364.126C596.816 364.126 593.745 365.886 591.848 369.405V409H576.89V352.998H590.916ZM719.12 381.517C719.12 390.143 717.153 397.061 713.22 402.271C709.321 407.447 704.041 410.035 697.382 410.035C691.723 410.035 687.151 408.068 683.666 404.135V430.531H668.708V352.998H682.579L683.097 358.484C686.72 354.137 691.447 351.963 697.278 351.963C704.179 351.963 709.545 354.516 713.375 359.623C717.205 364.73 719.12 371.769 719.12 380.74V381.517ZM704.162 380.43C704.162 375.219 703.23 371.2 701.367 368.37C699.538 365.541 696.864 364.126 693.345 364.126C688.652 364.126 685.426 365.92 683.666 369.509V392.438C685.495 396.13 688.756 397.976 693.448 397.976C700.591 397.976 704.162 392.127 704.162 380.43ZM760.889 409C760.199 407.654 759.698 405.981 759.388 403.979C755.765 408.017 751.055 410.035 745.258 410.035C739.771 410.035 735.217 408.448 731.594 405.273C728.005 402.099 726.211 398.096 726.211 393.266C726.211 387.331 728.402 382.776 732.784 379.602C737.201 376.427 743.567 374.823 751.883 374.788H758.767V371.579C758.767 368.991 758.094 366.921 756.748 365.368C755.437 363.815 753.349 363.039 750.485 363.039C747.966 363.039 745.982 363.643 744.533 364.851C743.118 366.058 742.411 367.715 742.411 369.819H727.453C727.453 366.576 728.454 363.574 730.455 360.813C732.456 358.053 735.286 355.896 738.943 354.344C742.601 352.757 746.707 351.963 751.262 351.963C758.163 351.963 763.632 353.705 767.669 357.19C771.741 360.641 773.776 365.506 773.776 371.786V396.061C773.811 401.374 774.553 405.394 776.002 408.12V409H760.889ZM748.519 398.597C750.727 398.597 752.763 398.114 754.626 397.147C756.489 396.147 757.869 394.818 758.767 393.162V383.535H753.177C745.689 383.535 741.704 386.123 741.221 391.299L741.169 392.179C741.169 394.042 741.825 395.577 743.136 396.785C744.447 397.993 746.241 398.597 748.519 398.597ZM799.034 352.998L799.5 359.468C803.503 354.465 808.868 351.963 815.597 351.963C821.532 351.963 825.948 353.705 828.847 357.19C831.745 360.675 833.229 365.886 833.298 372.821V409H818.34V373.184C818.34 370.009 817.65 367.715 816.27 366.3C814.889 364.851 812.595 364.126 809.386 364.126C805.176 364.126 802.019 365.92 799.914 369.509V409H784.956V352.998H799.034ZM865.595 387.831L875.946 352.998H891.991L869.477 417.695L868.234 420.646C864.887 427.961 859.367 431.618 851.672 431.618C849.498 431.618 847.29 431.29 845.047 430.635V419.3L847.324 419.352C850.154 419.352 852.258 418.92 853.639 418.058C855.053 417.195 856.158 415.763 856.951 413.762L858.711 409.155L839.095 352.998H855.191L865.595 387.831Z" fill="black"/>
<path d="M500.663 686.897C500.076 695.006 497.075 701.39 491.657 706.048C486.274 710.706 479.166 713.035 470.333 713.035C460.672 713.035 453.063 709.792 447.508 703.305C441.987 696.783 439.227 687.846 439.227 676.494V671.888C439.227 664.642 440.503 658.258 443.057 652.737C445.61 647.216 449.25 642.99 453.978 640.057C458.739 637.089 464.26 635.605 470.54 635.605C479.235 635.605 486.24 637.935 491.554 642.593C496.868 647.251 499.938 653.79 500.767 662.209H485.239C484.86 657.344 483.497 653.824 481.15 651.65C478.839 649.442 475.302 648.338 470.54 648.338C465.364 648.338 461.482 650.201 458.895 653.928C456.341 657.62 455.03 663.365 454.961 671.163V676.856C454.961 685 456.186 690.952 458.636 694.713C461.12 698.474 465.019 700.354 470.333 700.354C475.129 700.354 478.701 699.268 481.047 697.094C483.428 694.885 484.791 691.487 485.136 686.897H500.663ZM507.547 683.481C507.547 677.926 508.617 672.975 510.756 668.627C512.895 664.279 515.966 660.915 519.969 658.534C524.006 656.153 528.681 654.963 533.995 654.963C541.552 654.963 547.711 657.275 552.473 661.898C557.269 666.522 559.943 672.802 560.495 680.738L560.599 684.568C560.599 693.16 558.201 700.061 553.404 705.271C548.608 710.447 542.173 713.035 534.099 713.035C526.024 713.035 519.572 710.447 514.741 705.271C509.945 700.096 507.547 693.057 507.547 684.154V683.481ZM522.505 684.568C522.505 689.882 523.506 693.954 525.507 696.783C527.508 699.578 530.372 700.976 534.099 700.976C537.722 700.976 540.551 699.595 542.587 696.835C544.623 694.04 545.641 689.589 545.641 683.481C545.641 678.271 544.623 674.234 542.587 671.37C540.551 668.506 537.687 667.074 533.995 667.074C530.338 667.074 527.508 668.506 525.507 671.37C523.506 674.2 522.505 678.599 522.505 684.568ZM583.579 655.998L584.045 662.468C588.048 657.465 593.413 654.963 600.142 654.963C606.076 654.963 610.493 656.705 613.392 660.19C616.29 663.675 617.774 668.886 617.843 675.821V712H602.885V676.184C602.885 673.009 602.195 670.715 600.814 669.3C599.434 667.851 597.14 667.126 593.931 667.126C589.721 667.126 586.564 668.92 584.459 672.509V712H569.501V655.998H583.579ZM647.138 642.23V655.998H656.713V666.971H647.138V694.92C647.138 696.99 647.535 698.474 648.328 699.371C649.122 700.268 650.64 700.717 652.883 700.717C654.539 700.717 656.006 700.596 657.282 700.354V711.689C654.349 712.587 651.33 713.035 648.225 713.035C637.735 713.035 632.387 707.739 632.18 697.146V666.971H624.002V655.998H632.18V642.23H647.138ZM697.498 712C696.808 710.654 696.308 708.981 695.997 706.979C692.374 711.017 687.664 713.035 681.867 713.035C676.381 713.035 671.826 711.448 668.203 708.273C664.615 705.099 662.82 701.096 662.82 696.266C662.82 690.331 665.011 685.776 669.394 682.602C673.81 679.427 680.176 677.823 688.492 677.788H695.376V674.579C695.376 671.991 694.703 669.921 693.357 668.368C692.046 666.815 689.959 666.039 687.095 666.039C684.576 666.039 682.592 666.643 681.143 667.851C679.728 669.058 679.021 670.715 679.021 672.819H664.062C664.062 669.576 665.063 666.574 667.064 663.813C669.066 661.053 671.895 658.896 675.553 657.344C679.21 655.757 683.316 654.963 687.871 654.963C694.772 654.963 700.241 656.705 704.278 660.19C708.35 663.641 710.386 668.506 710.386 674.786V699.061C710.42 704.374 711.162 708.394 712.611 711.12V712H697.498ZM685.128 701.597C687.336 701.597 689.372 701.114 691.235 700.147C693.099 699.147 694.479 697.818 695.376 696.162V686.535H689.786C682.299 686.535 678.313 689.123 677.83 694.299L677.778 695.179C677.778 697.042 678.434 698.577 679.745 699.785C681.056 700.993 682.851 701.597 685.128 701.597ZM745.167 700.976C747.927 700.976 750.17 700.216 751.896 698.698C753.621 697.18 754.518 695.161 754.587 692.643H768.613C768.579 696.438 767.544 699.923 765.508 703.098C763.472 706.238 760.677 708.688 757.123 710.447C753.604 712.173 749.704 713.035 745.426 713.035C737.421 713.035 731.106 710.499 726.482 705.427C721.859 700.32 719.547 693.281 719.547 684.31V683.326C719.547 674.7 721.841 667.816 726.431 662.675C731.02 657.534 737.317 654.963 745.322 654.963C752.327 654.963 757.934 656.964 762.144 660.967C766.388 664.935 768.544 670.231 768.613 676.856H754.587C754.518 673.958 753.621 671.612 751.896 669.817C750.17 667.989 747.893 667.074 745.063 667.074C741.578 667.074 738.939 668.351 737.145 670.904C735.385 673.423 734.505 677.529 734.505 683.223V684.775C734.505 690.538 735.385 694.678 737.145 697.197C738.904 699.716 741.578 700.976 745.167 700.976ZM795.062 642.23V655.998H804.637V666.971H795.062V694.92C795.062 696.99 795.458 698.474 796.252 699.371C797.046 700.268 798.564 700.717 800.807 700.717C802.463 700.717 803.929 700.596 805.206 700.354V711.689C802.273 712.587 799.254 713.035 796.148 713.035C785.659 713.035 780.311 707.739 780.104 697.146V666.971H771.926V655.998H780.104V642.23H795.062Z" fill="black"/>
<path d="M504.493 564H488.966V531.703H458.688V564H443.16V488.641H458.688V519.178H488.966V488.641H504.493V564ZM514.793 535.481C514.793 529.926 515.863 524.975 518.002 520.627C520.141 516.279 523.212 512.915 527.215 510.534C531.252 508.153 535.927 506.963 541.241 506.963C548.798 506.963 554.957 509.275 559.719 513.898C564.515 518.522 567.189 524.802 567.741 532.738L567.845 536.568C567.845 545.16 565.447 552.061 560.65 557.271C555.854 562.447 549.419 565.035 541.345 565.035C533.271 565.035 526.818 562.447 521.987 557.271C517.191 552.096 514.793 545.057 514.793 536.154V535.481ZM529.751 536.568C529.751 541.882 530.752 545.954 532.753 548.783C534.754 551.578 537.618 552.976 541.345 552.976C544.968 552.976 547.797 551.595 549.833 548.835C551.869 546.04 552.887 541.589 552.887 535.481C552.887 530.271 551.869 526.234 549.833 523.37C547.797 520.506 544.933 519.074 541.241 519.074C537.584 519.074 534.754 520.506 532.753 523.37C530.752 526.2 529.751 530.599 529.751 536.568ZM625.762 543.659L633.111 507.998H647.552L633.267 564H620.741L610.131 528.753L599.521 564H587.047L572.762 507.998H587.202L594.5 543.607L604.748 507.998H615.565L625.762 543.659ZM730.105 543.659L737.455 507.998H751.896L737.61 564H725.085L714.475 528.753L703.864 564H691.391L677.105 507.998H691.546L698.844 543.607L709.092 507.998H719.909L730.105 543.659ZM785.124 565.035C776.912 565.035 770.218 562.516 765.042 557.479C759.901 552.441 757.33 545.729 757.33 537.345V535.896C757.33 530.271 758.417 525.251 760.591 520.834C762.765 516.383 765.836 512.967 769.804 510.586C773.806 508.171 778.361 506.963 783.468 506.963C791.128 506.963 797.149 509.378 801.531 514.209C805.948 519.04 808.156 525.889 808.156 534.757V540.864H772.495C772.978 544.522 774.427 547.455 776.843 549.663C779.293 551.871 782.381 552.976 786.107 552.976C791.87 552.976 796.373 550.888 799.616 546.713L806.966 554.942C804.723 558.117 801.687 560.601 797.856 562.396C794.026 564.155 789.782 565.035 785.124 565.035ZM783.416 519.074C780.449 519.074 778.033 520.075 776.17 522.076C774.341 524.077 773.168 526.941 772.65 530.668H793.457V529.478C793.388 526.165 792.491 523.612 790.766 521.817C789.04 519.989 786.59 519.074 783.416 519.074ZM891.797 543.659L899.146 507.998H913.587L899.302 564H886.776L876.166 528.753L865.556 564H853.082L838.797 507.998H853.237L860.535 543.607L870.783 507.998H881.601L891.797 543.659ZM918.711 535.481C918.711 529.926 919.781 524.975 921.92 520.627C924.059 516.279 927.13 512.915 931.133 510.534C935.17 508.153 939.845 506.963 945.159 506.963C952.716 506.963 958.875 509.275 963.637 513.898C968.433 518.522 971.107 524.802 971.659 532.738L971.763 536.568C971.763 545.16 969.365 552.061 964.568 557.271C959.772 562.447 953.337 565.035 945.263 565.035C937.188 565.035 930.736 562.447 925.905 557.271C921.109 552.096 918.711 545.057 918.711 536.154V535.481ZM933.669 536.568C933.669 541.882 934.67 545.954 936.671 548.783C938.672 551.578 941.536 552.976 945.263 552.976C948.886 552.976 951.715 551.595 953.751 548.835C955.787 546.04 956.805 541.589 956.805 535.481C956.805 530.271 955.787 526.234 953.751 523.37C951.715 520.506 948.851 519.074 945.159 519.074C941.502 519.074 938.672 520.506 936.671 523.37C934.67 526.2 933.669 530.599 933.669 536.568ZM1012.44 522.024C1010.41 521.748 1008.61 521.61 1007.06 521.61C1001.4 521.61 997.693 523.525 995.934 527.355V564H980.976V507.998H995.105L995.52 514.675C998.521 509.534 1002.68 506.963 1007.99 506.963C1009.65 506.963 1011.2 507.187 1012.65 507.636L1012.44 522.024ZM1040.03 541.537L1034.65 546.92V564H1019.69V484.5H1034.65V528.546L1037.55 524.819L1051.88 507.998H1069.84L1049.61 531.341L1071.6 564H1054.42L1040.03 541.537Z" fill="black"/>
<line x1="639" y1="77" x2="801" y2="77" stroke="black" stroke-width="2" stroke-linecap="round" stroke-linejoin="round"/>
<g opacity="0.6">
<path d="M969.458 831.583H951.542C946.594 831.583 942.583 835.594 942.583 840.542V858.458C942.583 863.406 946.594 867.417 951.542 867.417H969.458C974.406 867.417 978.417 863.406 978.417 858.458V840.542C978.417 835.594 974.406 831.583 969.458 831.583Z" stroke="black" stroke-width="3" stroke-linecap="round" stroke-linejoin="round"/>
<path d="M967.667 848.371C967.888 849.862 967.633 851.385 966.939 852.723C966.244 854.061 965.146 855.146 963.8 855.824C962.453 856.502 960.927 856.738 959.439 856.498C957.951 856.259 956.576 855.556 955.51 854.49C954.444 853.424 953.741 852.049 953.502 850.561C953.262 849.073 953.498 847.547 954.176 846.2C954.854 844.854 955.939 843.755 957.277 843.061C958.615 842.367 960.138 842.112 961.629 842.333C963.15 842.559 964.558 843.268 965.645 844.355C966.732 845.442 967.441 846.85 967.667 848.371Z" stroke="black" stroke-width="3" stroke-linecap="round" stroke-linejoin="round"/>
<path d="M970.354 839.646H970.373" stroke="black" stroke-width="3" stroke-linecap="round" stroke-linejoin="round"/>
</g>
<g opacity="0.6">
<path d="M1058.25 831.583H1052.87C1050.5 831.583 1048.22 832.527 1046.54 834.207C1044.86 835.887 1043.92 838.166 1043.92 840.542V845.917H1038.54V853.083H1043.92V867.417H1051.08V853.083H1056.46L1058.25 845.917H1051.08V840.542C1051.08 840.066 1051.27 839.611 1051.61 839.275C1051.94 838.939 1052.4 838.75 1052.87 838.75H1058.25V831.583Z" stroke="black" stroke-width="3" stroke-linecap="round" stroke-linejoin="round"/>
</g>
<g opacity="0.6">
<path d="M1154.21 833.375C1152.49 834.585 1150.59 835.511 1148.58 836.116C1147.5 834.876 1146.07 833.996 1144.47 833.597C1142.88 833.198 1141.2 833.298 1139.66 833.885C1138.13 834.471 1136.81 835.515 1135.88 836.875C1134.96 838.236 1134.48 839.847 1134.5 841.491V843.283C1131.35 843.365 1128.23 842.666 1125.42 841.25C1122.6 839.834 1120.19 837.744 1118.37 835.167C1118.37 835.167 1111.21 851.292 1127.33 858.458C1123.64 860.963 1119.25 862.219 1114.79 862.042C1130.92 871 1150.62 862.042 1150.62 841.438C1150.62 840.938 1150.58 840.441 1150.48 839.95C1152.31 838.147 1153.6 835.87 1154.21 833.375V833.375Z" stroke="black" stroke-width="3" stroke-linecap="round" stroke-linejoin="round"/>
</g>
<g opacity="0.7">
<path d="M1338.29 57.5H1302.71" stroke="black" stroke-width="5" stroke-linecap="round" stroke-linejoin="round"/>
<path d="M1320.5 75.2917L1302.71 57.5L1320.5 39.7084" stroke="black" stroke-width="5" stroke-linecap="round" stroke-linejoin="round"/>
</g>
<path d="M997.777 370.563H986.649V400H985.516V370.563H974.388V369.43H997.777V370.563ZM1008.61 400.42C1006.78 400.42 1005.09 399.93 1003.55 398.95C1002.03 397.956 1000.83 396.599 999.961 394.877C999.093 393.155 998.659 391.245 998.659 389.145V388.2C998.659 386.101 999.079 384.176 999.919 382.426C1000.76 380.677 1001.91 379.312 1003.38 378.332C1004.85 377.352 1006.46 376.862 1008.19 376.862C1010.72 376.862 1012.8 377.765 1014.41 379.571C1016.02 381.376 1016.82 383.749 1016.82 386.688V387.885H999.793V389.124C999.793 390.972 1000.18 392.686 1000.95 394.268C1001.73 395.836 1002.8 397.068 1004.16 397.963C1005.53 398.859 1007.02 399.307 1008.61 399.307C1010.14 399.307 1011.43 399.055 1012.5 398.551C1013.57 398.033 1014.53 397.243 1015.35 396.179L1016.15 396.746C1014.46 399.195 1011.94 400.42 1008.61 400.42ZM1008.19 377.996C1005.98 377.996 1004.1 378.822 1002.56 380.474C1001.02 382.111 1000.12 384.204 999.856 386.751H1015.69V386.479C1015.69 384.939 1015.36 383.511 1014.7 382.195C1014.06 380.866 1013.16 379.837 1012.01 379.109C1010.88 378.367 1009.61 377.996 1008.19 377.996ZM1036.79 400C1036.51 399.034 1036.37 397.648 1036.37 395.843C1035.47 397.299 1034.25 398.425 1032.69 399.223C1031.14 400.021 1029.38 400.42 1027.42 400.42C1025.32 400.42 1023.63 399.853 1022.34 398.719C1021.07 397.571 1020.43 396.081 1020.43 394.247C1020.43 392.161 1021.37 390.496 1023.25 389.25C1025.14 387.99 1027.64 387.346 1030.76 387.318H1036.37V384.001C1036.37 382.097 1035.77 380.621 1034.56 379.571C1033.37 378.521 1031.67 377.996 1029.44 377.996C1027.37 377.996 1025.64 378.528 1024.25 379.592C1022.87 380.656 1022.17 381.971 1022.17 383.539L1021.04 383.497C1021.04 381.649 1021.85 380.082 1023.48 378.794C1025.1 377.506 1027.09 376.862 1029.44 376.862C1031.89 376.862 1033.83 377.478 1035.28 378.71C1036.72 379.928 1037.46 381.649 1037.5 383.875V394.73C1037.5 397.222 1037.7 398.915 1038.09 399.811V400H1036.79ZM1027.42 399.307C1029.55 399.307 1031.38 398.831 1032.9 397.879C1034.44 396.928 1035.6 395.591 1036.37 393.869V388.473H1031.12C1027.87 388.473 1025.39 389.117 1023.67 390.405C1022.27 391.455 1021.57 392.763 1021.57 394.331C1021.57 395.717 1022.12 396.893 1023.22 397.858C1024.33 398.824 1025.73 399.307 1027.42 399.307ZM1061.08 400H1059.95V384.736C1059.93 382.454 1059.43 380.761 1058.44 379.655C1057.46 378.535 1055.89 377.975 1053.73 377.975C1051.24 377.975 1049.2 379.074 1047.62 381.271C1046.68 382.587 1046.06 384.043 1045.75 385.639V400H1044.6V377.282H1045.75V382.657C1046.52 380.81 1047.62 379.382 1049.05 378.374C1050.48 377.366 1052.06 376.862 1053.79 376.862C1055.7 376.862 1057.25 377.282 1058.46 378.122C1059.67 378.962 1060.47 380.334 1060.85 382.237C1061.52 380.6 1062.61 379.298 1064.12 378.332C1065.64 377.352 1067.33 376.862 1069.21 376.862C1071.66 376.862 1073.48 377.555 1074.67 378.941C1075.87 380.327 1076.48 382.405 1076.49 385.177V400H1075.36V385.261C1075.36 382.769 1074.85 380.929 1073.85 379.739C1072.85 378.535 1071.28 377.947 1069.14 377.975C1066.39 378.017 1064.2 379.116 1062.59 381.271C1061.67 382.517 1061.16 383.721 1061.08 384.883V400Z" fill="black"/>
<path d="M54.7549 62H46.5029V35.1689C46.5029 31.5719 47.5853 28.7969 49.75 26.8438C51.931 24.8743 55.0316 23.8896 59.0518 23.8896C62.2419 23.8896 64.8379 24.736 66.8398 26.4287C68.8418 28.1214 69.8428 30.3675 69.8428 33.167C69.8428 34.9085 69.4521 36.3978 68.6709 37.6348C67.9059 38.8717 67.5234 40.1982 67.5234 41.6143C67.5234 42.1188 67.7188 42.6396 68.1094 43.1768C68.5163 43.7139 69.4033 44.6497 70.7705 45.9844C73.098 48.2467 74.2617 50.5905 74.2617 53.0156C74.2617 56.0592 73.2445 58.403 71.21 60.0469C69.1917 61.6745 66.3271 62.4883 62.6162 62.4883C61.3955 62.4883 60.1667 62.3743 58.9297 62.1465C57.709 61.9349 56.7568 61.6338 56.0732 61.2432L57.5137 55.0664C58.8971 55.7826 60.6143 56.1406 62.665 56.1406C63.6416 56.1406 64.4473 55.8802 65.082 55.3594C65.7331 54.8223 66.0586 54.0654 66.0586 53.0889C66.0586 52.4215 65.8551 51.7949 65.4482 51.209C65.0413 50.623 64.1868 49.7686 62.8848 48.6455C61.5827 47.5225 60.6549 46.4482 60.1016 45.4229C59.5645 44.3812 59.2959 43.2581 59.2959 42.0537C59.2959 40.3773 59.6784 38.8555 60.4434 37.4883C61.2083 36.1211 61.5908 34.7946 61.5908 33.5088C61.5908 32.5485 61.2653 31.7591 60.6143 31.1406C59.9632 30.5221 59.1413 30.2129 58.1484 30.2129C56.944 30.2129 56.0732 30.6361 55.5361 31.4824C55.0153 32.3288 54.7549 33.5983 54.7549 35.291V62ZM86.9814 62H78.7051V35.584H86.9814V62ZM72.8213 29.1631C72.8213 28.2679 73.1794 27.5029 73.8955 26.8682C74.5954 26.2334 75.4661 25.916 76.5078 25.916C77.5495 25.916 78.4202 26.2334 79.1201 26.8682C79.8363 27.5029 80.1943 28.2679 80.1943 29.1631C80.1943 30.0583 79.8363 30.8232 79.1201 31.458C78.4202 32.0928 77.5495 32.4102 76.5078 32.4102C75.4661 32.4102 74.5954 32.0928 73.8955 31.458C73.1794 30.8232 72.8213 30.0583 72.8213 29.1631ZM85.4922 29.1631C85.4922 28.2679 85.8421 27.5029 86.542 26.8682C87.2581 26.2334 88.137 25.916 89.1787 25.916C90.2204 25.916 91.0911 26.2334 91.791 26.8682C92.5072 27.5029 92.8652 28.2679 92.8652 29.1631C92.8652 30.0583 92.5072 30.8232 91.791 31.458C91.0911 32.0928 90.2204 32.4102 89.1787 32.4102C88.137 32.4102 87.2581 32.0928 86.542 31.458C85.8421 30.8232 85.4922 30.0583 85.4922 29.1631ZM103.998 52.7715H101.068V62H92.8408V35.584H101.068V45.0811H103.266L108.759 35.584H119.306L110.956 47.9375L119.501 62H108.905L103.998 52.7715ZM130.756 53.7969C130.756 54.627 131.13 55.3105 131.879 55.8477C132.644 56.3685 133.645 56.6289 134.882 56.6289C136.33 56.6289 137.388 56.3929 138.056 55.9209C138.739 55.4326 139.081 54.8548 139.081 54.1875H147.309C147.309 56.7103 146.194 58.7285 143.964 60.2422C141.734 61.7396 138.894 62.4883 135.443 62.4883C131.602 62.4883 128.493 61.7559 126.117 60.291C123.741 58.8099 122.553 56.8893 122.553 54.5293C122.553 53.0319 122.984 51.7705 123.847 50.7451C124.726 49.7035 125.979 48.9222 127.606 48.4014C126.174 47.8154 125.051 47.0342 124.237 46.0576C123.424 45.0648 123.017 43.9824 123.017 42.8105C123.017 40.418 124.14 38.5381 126.386 37.1709C128.632 35.8037 131.651 35.1201 135.443 35.1201C138.812 35.1201 141.563 35.8851 143.695 37.415C145.827 38.9287 146.894 40.8737 146.894 43.25H138.666C138.666 42.4688 138.308 41.8991 137.592 41.541C136.892 41.1667 135.997 40.9795 134.906 40.9795C133.783 40.9795 132.888 41.2155 132.221 41.6875C131.57 42.1595 131.244 42.7861 131.244 43.5674C131.244 45.1624 132.668 45.96 135.517 45.96H139.374V51.0137H135.175C132.229 51.0137 130.756 51.9414 130.756 53.7969ZM166.889 43.0303L164.179 42.835C161.591 42.835 159.931 43.6488 159.198 45.2764V62H150.971V35.584H158.686L158.954 38.9775C160.338 36.3896 162.266 35.0957 164.74 35.0957C165.619 35.0957 166.384 35.1934 167.035 35.3887L166.889 43.0303ZM181.342 48.5967C181.342 45.9274 181.781 43.5674 182.66 41.5166C183.539 39.4658 184.8 37.887 186.444 36.7803C188.088 35.6572 190.001 35.0957 192.182 35.0957C194.932 35.0957 197.081 36.0234 198.627 37.8789L198.92 35.584H206.391V60.999C206.391 63.3265 205.845 65.3447 204.755 67.0537C203.681 68.779 202.118 70.0973 200.067 71.0088C198.017 71.9365 195.64 72.4004 192.938 72.4004C191.002 72.4004 189.122 72.0342 187.299 71.3018C185.492 70.5693 184.109 69.6172 183.148 68.4453L186.591 63.6113C188.121 65.418 190.139 66.3213 192.646 66.3213C196.291 66.3213 198.114 64.4495 198.114 60.7061V59.876C196.535 61.6175 194.542 62.4883 192.133 62.4883C188.91 62.4883 186.306 61.2594 184.32 58.8018C182.335 56.3278 181.342 53.0238 181.342 48.8896V48.5967ZM189.594 49.1094C189.594 51.2741 190.001 52.9912 190.814 54.2607C191.628 55.514 192.768 56.1406 194.232 56.1406C196.007 56.1406 197.3 55.5465 198.114 54.3584V43.25C197.317 42.0456 196.039 41.4434 194.281 41.4434C192.816 41.4434 191.669 42.1025 190.839 43.4209C190.009 44.723 189.594 46.6191 189.594 49.1094ZM234.174 35.584V53.3818C234.223 55.2048 234.784 56.1162 235.858 56.1162C236.037 56.1162 236.168 56.0918 236.249 56.043L236.884 62C236.054 62.3418 235.036 62.5127 233.832 62.5127C230.577 62.5127 228.274 61.1374 226.923 58.3867C225.377 61.1211 223.236 62.4883 220.502 62.4883C217.328 62.4883 214.822 61.3164 212.982 58.9727C211.143 56.6126 210.224 53.2354 210.224 48.8408C210.224 44.6579 211.135 41.3213 212.958 38.8311C214.797 36.3408 217.328 35.0957 220.551 35.0957C223.008 35.0957 224.962 36.2676 226.41 38.6113L226.972 35.584H234.174ZM218.5 49.3535C218.5 51.681 218.834 53.3981 219.501 54.5049C220.185 55.5954 221.21 56.1406 222.577 56.1406C224.075 56.1406 225.189 55.6279 225.922 54.6025V43.25C225.189 42.0456 224.091 41.4434 222.626 41.4434C219.875 41.4434 218.5 44.0801 218.5 49.3535ZM246.82 35.584L247.089 38.8799C249.026 36.3571 251.532 35.0957 254.608 35.0957C257.343 35.0957 259.402 35.9421 260.785 37.6348C262.169 39.3112 262.86 41.8014 262.86 45.1055V72.1562H254.608V45.2764C254.608 42.721 253.559 41.4434 251.459 41.4434C249.685 41.4434 248.301 42.0293 247.309 43.2012V62H239.081V35.584H246.82ZM266.352 48.5967C266.352 45.9274 266.791 43.5674 267.67 41.5166C268.549 39.4658 269.81 37.887 271.454 36.7803C273.098 35.6572 275.01 35.0957 277.191 35.0957C279.942 35.0957 282.09 36.0234 283.637 37.8789L283.93 35.584H291.4V60.999C291.4 63.3265 290.855 65.3447 289.765 67.0537C288.69 68.779 287.128 70.0973 285.077 71.0088C283.026 71.9365 280.65 72.4004 277.948 72.4004C276.011 72.4004 274.132 72.0342 272.309 71.3018C270.502 70.5693 269.118 69.6172 268.158 68.4453L271.601 63.6113C273.131 65.418 275.149 66.3213 277.655 66.3213C281.301 66.3213 283.124 64.4495 283.124 60.7061V59.876C281.545 61.6175 279.551 62.4883 277.143 62.4883C273.92 62.4883 271.316 61.2594 269.33 58.8018C267.344 56.3278 266.352 53.0238 266.352 48.8896V48.5967ZM274.604 49.1094C274.604 51.2741 275.01 52.9912 275.824 54.2607C276.638 55.514 277.777 56.1406 279.242 56.1406C281.016 56.1406 282.31 55.5465 283.124 54.3584V43.25C282.326 42.0456 281.049 41.4434 279.291 41.4434C277.826 41.4434 276.679 42.1025 275.849 43.4209C275.019 44.723 274.604 46.6191 274.604 49.1094Z" fill="black"/>
<path opacity="0.5" d="M168.291 858.094L168.759 853.719H166.103L165.713 858.094H164.463L164.931 853.719H163.369V852.234H165.088L165.634 847.156H163.369V845.672H165.791L166.181 841.375H167.431L166.963 845.672H169.619L170.009 841.375H171.259L170.791 845.672H172.353V847.156H170.634L170.088 852.234H172.353V853.719H169.931L169.541 858.094H168.291ZM168.916 852.234L169.463 847.156H166.806L166.259 852.234H168.916ZM175.088 856.844L173.056 846.141H174.697L175.791 852.469H175.947L176.963 846.141H178.681L179.697 852.469H179.853L180.947 846.141H182.588L180.556 856.844H179.072L177.9 849.578H177.744L176.572 856.844H175.088ZM185.703 856.844H184.141V846.141H185.703V856.844ZM185.703 841.609V843.641H184.141V841.609H185.703ZM193.966 849.188C193.966 848.719 193.809 848.328 193.497 848.016C193.184 847.703 192.768 847.547 192.247 847.547C191.674 847.547 191.101 847.833 190.528 848.406C189.799 849.135 189.434 850.073 189.434 851.219V856.844H187.872V846.141H189.434V848.172C189.695 847.807 190.007 847.443 190.372 847.078C190.997 846.453 191.778 846.141 192.716 846.141C193.549 846.141 194.226 846.401 194.747 846.922C195.268 847.443 195.528 848.146 195.528 849.031V856.844H193.966V849.188ZM203.888 855.281C203.054 856.323 202.117 856.844 201.075 856.844C200.294 856.844 199.539 856.479 198.809 855.75C197.924 854.865 197.481 853.38 197.481 851.297C197.481 849.578 197.976 848.224 198.966 847.234C199.695 846.505 200.502 846.141 201.388 846.141C202.325 846.141 203.158 846.531 203.888 847.312V841.609H205.45V856.844H203.888V855.281ZM201.544 847.547C201.075 847.547 200.632 847.755 200.216 848.172C199.539 848.849 199.2 849.943 199.2 851.453C199.2 853.172 199.486 854.318 200.059 854.891C200.424 855.255 200.893 855.438 201.466 855.438C201.934 855.438 202.403 855.203 202.872 854.734C203.549 854.057 203.888 852.911 203.888 851.297C203.888 849.839 203.549 848.771 202.872 848.094C202.507 847.729 202.065 847.547 201.544 847.547ZM213.575 850.984C212.95 851.349 212.221 851.661 211.388 851.922C210.763 852.13 210.268 852.417 209.903 852.781C209.643 853.042 209.513 853.406 209.513 853.875C209.513 854.396 209.643 854.786 209.903 855.047C210.164 855.307 210.58 855.438 211.153 855.438C212.091 855.438 212.898 854.891 213.575 853.797V850.984ZM213.575 855.672C212.794 856.453 211.83 856.844 210.684 856.844C209.747 856.844 208.992 856.557 208.419 855.984C207.898 855.464 207.638 854.812 207.638 854.031C207.638 853.198 207.924 852.495 208.497 851.922C209.018 851.401 209.617 851.036 210.294 850.828C212.065 850.255 213.028 849.865 213.184 849.656C213.445 849.344 213.575 849.031 213.575 848.719C213.575 848.406 213.419 848.12 213.106 847.859C212.846 847.651 212.377 847.547 211.7 847.547C211.179 847.547 210.763 847.703 210.45 848.016C210.033 848.432 209.799 848.979 209.747 849.656H208.028C208.08 848.615 208.445 847.755 209.122 847.078C209.747 846.453 210.606 846.141 211.7 846.141C212.95 846.141 213.835 846.401 214.356 846.922C214.877 847.443 215.138 848.094 215.138 848.875V855.047C215.138 855.672 215.346 856.271 215.763 856.844H213.888C213.679 856.635 213.575 856.245 213.575 855.672ZM223.966 849.188C223.966 848.719 223.809 848.328 223.497 848.016C223.184 847.703 222.768 847.547 222.247 847.547C221.674 847.547 221.101 847.833 220.528 848.406C219.799 849.135 219.434 850.073 219.434 851.219V856.844H217.872V846.141H219.434V848.172C219.695 847.807 220.007 847.443 220.372 847.078C220.997 846.453 221.778 846.141 222.716 846.141C223.549 846.141 224.226 846.401 224.747 846.922C225.268 847.443 225.528 848.146 225.528 849.031V856.844H223.966V849.188ZM233.887 855.281C233.054 856.323 232.117 856.844 231.075 856.844C230.294 856.844 229.539 856.479 228.809 855.75C227.924 854.865 227.481 853.38 227.481 851.297C227.481 849.578 227.976 848.224 228.966 847.234C229.695 846.505 230.502 846.141 231.387 846.141C232.325 846.141 233.158 846.531 233.887 847.312V841.609H235.45V856.844H233.887V855.281ZM231.544 847.547C231.075 847.547 230.632 847.755 230.216 848.172C229.539 848.849 229.2 849.943 229.2 851.453C229.2 853.172 229.486 854.318 230.059 854.891C230.424 855.255 230.893 855.438 231.466 855.438C231.934 855.438 232.403 855.203 232.872 854.734C233.549 854.057 233.887 852.911 233.887 851.297C233.887 849.839 233.549 848.771 232.872 848.094C232.507 847.729 232.065 847.547 231.544 847.547ZM243.497 849.344C243.445 848.771 243.263 848.328 242.95 848.016C242.638 847.703 242.221 847.547 241.7 847.547C241.023 847.547 240.554 847.677 240.294 847.938C239.981 848.25 239.825 848.589 239.825 848.953C239.825 849.214 239.955 849.474 240.216 849.734C240.58 850.099 241.361 850.49 242.559 850.906C243.497 851.219 244.174 851.583 244.591 852C245.059 852.469 245.294 853.094 245.294 853.875C245.294 854.604 245.033 855.229 244.513 855.75C243.783 856.479 242.846 856.844 241.7 856.844C240.45 856.844 239.513 856.531 238.888 855.906C238.21 855.229 237.898 854.161 237.95 852.703H239.513C239.513 853.849 239.669 854.578 239.981 854.891C240.346 855.255 240.893 855.438 241.622 855.438C242.351 855.438 242.898 855.255 243.263 854.891C243.575 854.578 243.731 854.214 243.731 853.797C243.731 853.484 243.575 853.172 243.263 852.859C242.95 852.547 242.351 852.234 241.466 851.922C240.164 851.453 239.304 851.01 238.888 850.594C238.419 850.125 238.184 849.552 238.184 848.875C238.184 848.198 238.471 847.573 239.044 847C239.617 846.427 240.502 846.141 241.7 846.141C242.742 846.141 243.575 846.453 244.2 847.078C244.825 847.703 245.111 848.458 245.059 849.344H243.497ZM249.278 847.859C250.007 846.714 250.945 846.141 252.091 846.141C252.976 846.141 253.731 846.453 254.356 847.078C255.294 848.016 255.763 849.5 255.763 851.531C255.763 853.406 255.294 854.812 254.356 855.75C253.627 856.479 252.846 856.844 252.013 856.844C250.815 856.844 249.903 856.323 249.278 855.281V859.578H247.716V846.141H249.278V847.859ZM251.856 847.469C251.335 847.469 250.789 847.755 250.216 848.328C249.591 848.953 249.278 850.021 249.278 851.531C249.278 852.99 249.643 854.083 250.372 854.812C250.789 855.229 251.257 855.438 251.778 855.438C252.299 855.438 252.768 855.229 253.184 854.812C253.757 854.24 254.044 853.12 254.044 851.453C254.044 849.786 253.757 848.667 253.184 848.094C252.768 847.677 252.325 847.469 251.856 847.469ZM264.084 853.172C263.928 854.318 263.537 855.203 262.912 855.828C262.235 856.505 261.376 856.844 260.334 856.844C259.189 856.844 258.277 856.505 257.6 855.828C256.61 854.839 256.116 853.406 256.116 851.531C256.116 849.604 256.558 848.198 257.444 847.312C258.225 846.531 259.162 846.141 260.256 846.141C261.142 846.141 261.949 846.453 262.678 847.078C263.616 847.859 264.058 849.344 264.006 851.531H257.834C257.834 853.25 258.147 854.344 258.772 854.812C259.136 855.177 259.657 855.359 260.334 855.359C260.907 855.359 261.376 855.177 261.741 854.812C262.053 854.5 262.235 853.953 262.287 853.172H264.084ZM262.209 850.281C262.261 849.24 262.027 848.484 261.506 848.016C261.037 847.599 260.569 847.417 260.1 847.469C259.579 847.521 259.084 847.781 258.616 848.25C258.199 848.667 257.939 849.344 257.834 850.281H262.209ZM274.084 853.172C273.928 854.318 273.537 855.203 272.912 855.828C272.235 856.505 271.376 856.844 270.334 856.844C269.189 856.844 268.277 856.505 267.6 855.828C266.61 854.839 266.116 853.406 266.116 851.531C266.116 849.604 266.558 848.198 267.444 847.312C268.225 846.531 269.162 846.141 270.256 846.141C271.142 846.141 271.949 846.453 272.678 847.078C273.616 847.859 274.058 849.344 274.006 851.531H267.834C267.834 853.25 268.147 854.344 268.772 854.812C269.136 855.177 269.657 855.359 270.334 855.359C270.907 855.359 271.376 855.177 271.741 854.812C272.053 854.5 272.235 853.953 272.287 853.172H274.084ZM272.209 850.281C272.261 849.24 272.027 848.484 271.506 848.016C271.037 847.599 270.569 847.417 270.1 847.469C269.579 847.521 269.084 847.781 268.616 848.25C268.199 848.667 267.939 849.344 267.834 850.281H272.209ZM282.287 855.281C281.454 856.323 280.517 856.844 279.475 856.844C278.694 856.844 277.939 856.479 277.209 855.75C276.324 854.865 275.881 853.38 275.881 851.297C275.881 849.578 276.376 848.224 277.366 847.234C278.095 846.505 278.902 846.141 279.787 846.141C280.725 846.141 281.558 846.531 282.287 847.312V841.609H283.85V856.844H282.287V855.281ZM279.944 847.547C279.475 847.547 279.032 847.755 278.616 848.172C277.939 848.849 277.6 849.943 277.6 851.453C277.6 853.172 277.886 854.318 278.459 854.891C278.824 855.255 279.293 855.438 279.866 855.438C280.334 855.438 280.803 855.203 281.272 854.734C281.949 854.057 282.287 852.911 282.287 851.297C282.287 849.839 281.949 848.771 281.272 848.094C280.907 847.729 280.465 847.547 279.944 847.547Z" fill="black"/>
</svg>
